<?xml version="1.0" encoding="UTF-8"?>
<svg id="katman_1" xmlns="http://www.w3.org/2000/svg" version="1.1" viewBox="0 0 1536 1024">
  <!-- Generator: Adobe Illustrator 29.1.0, SVG Export Plug-In . SVG Version: 2.1.0 Build 142)  -->
  <defs>
    <style>
      .st0 {
        fill: #18223b;
      }
    </style>
  </defs>
  <path class="st0" d="M201.3,217.9c3.2-4.1,9.8-6.8,19.7-8.1.5,0,1-.9,1.4-2.7.4-1.8.6-3.3.6-4.4s-.2-2.8-.6-4.5c-.4-1.7-.9-2.6-1.4-2.6-8.5,0-16.9.3-25.3.8-8.3.5-16.5.8-24.5.8s-15.6-.3-23.4-.8c-7.7-.5-15.8-.8-24.1-.8s-1,.8-1.4,2.4c-.4,1.6-.6,3.2-.6,4.7s.2,2.5.6,4.2c.4,1.7.9,2.7,1.4,2.9,10.2,1.5,16.5,4.1,18.8,7.7s3.5,10.1,3.5,19.4v62h-69v-62c0-8.6,1.3-15,3.8-19s8.8-6.8,18.6-8.1c.5,0,1-.9,1.4-2.7.4-1.8.6-3.3.6-4.4s-.2-2.8-.6-4.5c-.4-1.7-.9-2.6-1.4-2.6-8.3,0-16.4.3-24.3.8-7.8.5-15.7.8-23.5.8s-16-.3-24.4-.8-16.8-.8-25.2-.8-1,.8-1.4,2.4c-.4,1.6-.6,3.2-.6,4.7s.2,2.5.6,4.2c.4,1.7.9,2.7,1.4,2.9,9.9,1.5,16.4,4.2,19.5,8.1,3.2,3.9,4.7,10.2,4.7,19v141.7c0,8.8-1.6,15.2-4.7,19s-9.7,6.6-19.5,8.1c-.5.2-1,1.2-1.4,2.9-.4,1.7-.6,3.1-.6,4.2,0,1.5.2,3.1.6,4.7.4,1.6.9,2.4,1.4,2.4,8.3,0,16.7-.3,25.2-.8,8.4-.5,16.6-.8,24.4-.8s15.7.3,23.5.8c7.8.5,15.9.8,24.3.8s1-.9,1.4-2.6.6-3.2.6-4.5-.2-2.5-.6-4.4c-.4-1.8-.9-2.7-1.4-2.7-9.9-1.3-16.1-4-18.6-8.1s-3.8-10.4-3.8-19v-63.9h69v63.9c0,8.8-1.3,15.2-3.8,19s-8.7,6.6-18.4,8.1c-.5.2-1,1.2-1.4,2.9-.4,1.7-.6,3.1-.6,4.2,0,1.5.2,3.1.6,4.7.4,1.6.9,2.4,1.4,2.4,8.3,0,16.4-.3,24.1-.8,7.7-.5,15.5-.8,23.4-.8s16,.3,24.5.8c8.5.5,16.9.8,25.3.8s1-.9,1.4-2.6.6-3.2.6-4.5-.2-2.5-.6-4.4c-.4-1.8-.9-2.7-1.4-2.7-9.9-1.3-16.4-4-19.7-8.1-3.2-4.1-4.9-10.4-4.9-19v-141.7c0-8.6,1.6-15,4.9-19h0Z"/>
  <path class="st0" d="M366,404.5c0-2.2-.8-4.4-2.4-6.6-1.6-2.3-2.8-3.1-3.5-2.4-1,1.1-2.2,1.9-3.6,2.6-1.4.6-2.8,1-4.3,1s-3.8-1.1-5.9-3.4c-2-2.3-2.9-7.1-2.6-14.7l1.3-56.2c.5-17-2.1-30.5-7.8-40.4-5.7-9.9-16.4-14.8-32.1-14.8s-32.7,4.5-46.6,13.6c-13.9,9-20.8,18.9-20.8,29.7s1.7,12,5,16.6c3.3,4.6,8.1,6.9,14.4,6.9s12.3-2.6,15.8-7.7c3.6-5.2,5.8-14.4,6.6-27.8.3-5.4,2-8.9,5-10.7s6.3-2.6,9.8-2.6,6.1,1.1,7.7,3.2,2.3,6.6,2.3,13.2l-.8,31.6c-26.1,7.3-44.6,15-55.7,22.9-11.1,8-16.6,18.3-16.6,31s3.4,19.9,10.1,25.5c6.7,5.6,14.9,8.4,24.6,8.4s16.3-1.8,22.3-5.3,11-9.1,14.9-16.6c1.4,6.7,4.2,12,8.6,16,4.3,4,10,6,17,6s14.1-1.5,20.9-4.5c6.8-3,11.8-6.9,15.1-11.6.5-.4.8-.9.8-1.3s0-1,.3-1.6h0ZM302.4,380.6c-.7,7.5-2.4,12.7-5.2,15.3-2.8,2.7-5.9,4-9.3,4s-7.3-1.6-9.6-4.8c-2.3-3.2-3.5-7.5-3.5-12.9,0-9.7,2.2-17.1,6.6-22.3s11.7-9.3,21.7-12.3l-.8,32.9h0Z"/>
  <path class="st0" d="M609.8,408.7s0,0,0,0c0,0,0,0,0,0-.4-1.8-.9-2.7-1.4-2.7-7.5-.9-12.3-3-14.3-6.3-2.1-3.3-3.1-10.3-3.1-20.8v-58.8c0-12.7-3.5-24.1-10.5-34.1s-16.9-15-29.6-15-16.8,2.6-24.3,7.7c-7.5,5.2-13.8,13.5-18.9,24.9-2.6-10.1-7.7-18.1-15.6-23.9-7.8-5.8-16.3-8.7-25.5-8.7s-14.3,2.4-21.4,7.3-13.1,13.2-17.9,25l1.3-30.7c0-1.1-.5-2-1.4-2.9s-2.4-1.3-4.5-1.3-1.9.3-3.1,1c-1.2.6-2,1.2-2.6,1.6-5.5,3.2-13.1,7.2-23,11.9-9.9,4.7-17.6,7.9-23.2,9.6-.5,0-1,.9-1.4,2.6-.4,1.7-.6,3.1-.6,4.2s.2,2.4.6,4,.9,2.5,1.4,2.8c6.1.9,10,2.6,11.6,5.2,1.6,2.6,2.4,8.2,2.4,16.8v50.9c0,10.7-1,17.7-2.9,20.8-2,3.1-6.7,5.2-14.2,6.3-.5.2-1,1.2-1.4,2.9-.4,1.7-.6,3.1-.6,4.2,0,1.5.2,3.1.6,4.7.4,1.6.9,2.4,1.4,2.4,5.1,0,11.1-.3,18.1-.8,7-.5,13.4-.8,19.2-.8s11.9.3,17.8.8,11.4.8,16.7.8,1-.9,1.4-2.6.6-3.2.6-4.5-.2-2.5-.6-4.4c-.4-1.8-.9-2.7-1.4-2.7-4.8-.6-7.8-2.8-9.2-6.5s-2-10.5-2-20.7v-54.6c2.9-8.6,5.8-15.2,8.8-19.7,3-4.5,7.1-6.8,12.4-6.8s10,2.4,12.8,7.3,4.1,12.4,4.1,22.8v51c0,10.5-.6,17.5-1.9,20.8-1.3,3.3-4.4,5.4-9.3,6.3-.5.2-1,1.2-1.4,2.9-.4,1.7-.6,3.1-.6,4.2s.2,2.8.6,4.5c.4,1.7.9,2.6,1.4,2.6,5.1,0,11-.3,17.6-.8,6.6-.5,12.9-.8,18.9-.8s11,.3,15.1.8c4.1.5,8.8.8,14.1.8s1-.8,1.4-2.4c.4-1.6.6-3.2.6-4.7s-.2-2.5-.6-4.4c-.4-1.8-.9-2.7-1.4-2.7-4.8-.6-7.8-2.8-9.1-6.5-1.3-3.7-1.9-10.5-1.9-20.7v-58.1c3.6-8,6.8-13.8,9.7-17.4,2.9-3.7,7.4-5.5,13.5-5.5s9.4,2.4,11.5,7.3c2.1,4.8,3.1,12.4,3.1,22.8v51c0,10.5-.6,17.5-1.8,20.8-1.2,3.3-4.3,5.4-9.2,6.3-.5.2-1,1.2-1.4,2.9-.4,1.7-.6,3.1-.6,4.2,0,1.5.2,3.1.6,4.7.4,1.6.9,2.4,1.4,2.4,5.1,0,10.6-.3,16.5-.8,5.9-.5,11.8-.8,17.8-.8s12.4.3,19.3.8,13,.8,18.3.8,1-.8,1.4-2.5c-.4-1.6-.6-3.1-.6-4.6s.2-2.5.6-4.2h0Z"/>
  <path class="st0" d="M736.6,361.7c4.8-5.7,10.3-10.2,16.6-13.7v-27.5c3.6-8,6.8-13.8,9.7-17.4,2.9-3.7,7.4-5.5,13.5-5.5s9.4,2.4,11.5,7.3c2.1,4.8,3.1,12.4,3.1,22.8v13.2c19.6,1.8,31.8,11,38.7,18.8,1.7,1.9,3.3,4,4.7,6v-45.8c0-12.7-3.5-24.1-10.5-34.1-7-10-16.9-15-29.6-15s-16.8,2.6-24.3,7.7-13.8,13.5-18.9,24.9c-2.6-10.1-7.7-18.1-15.6-23.9-7.8-5.8-16.3-8.7-25.5-8.7s-14.3,2.4-21.4,7.3-13.1,13.2-17.9,25l1.3-30.7c0-1.1-.5-2-1.4-2.9-.9-.9-2.4-1.3-4.5-1.3s-1.9.3-3.1,1-2,1.2-2.6,1.6c-5.5,3.2-13.1,7.2-23,11.9-9.9,4.7-17.6,7.9-23.2,9.6-.5,0-1,.9-1.4,2.6-.4,1.7-.6,3.1-.6,4.2s.2,2.4.6,4,.9,2.5,1.4,2.8c6.1.9,10,2.6,11.6,5.2,1.6,2.6,2.4,8.2,2.4,16.8v50.9c0,10.7-1,17.7-2.9,20.8-2,3.1-6.7,5.2-14.2,6.3-.5.2-1,1.2-1.4,2.8.4,1.8.6,3.2.6,4.3s-.2,2.8-.6,4.5c0,0,0,0,0,0,0,0,0,0,0,0,.4,1.6.9,2.4,1.4,2.4,5.1,0,11.1-.3,18.1-.8,7-.5,13.4-.8,19.2-.8s11.9.3,17.8.8c5.9.5,11.4.8,16.7.8s1-.9,1.4-2.6.6-3.2.6-4.5-.2-2.5-.6-4.4c-.4-1.8-.9-2.7-1.4-2.7-4.8-.6-7.8-2.8-9.2-6.5-1.4-3.7-2-10.5-2-20.7v-54.6c2.9-8.6,5.8-15.2,8.8-19.7,3-4.5,7.1-6.8,12.4-6.8s10,2.4,12.8,7.3c2.7,4.8,4.1,12.4,4.1,22.8v51c0,10.5-.6,17.5-1.9,20.8-1.3,3.3-4.4,5.4-9.3,6.3-.5.2-1,1.2-1.4,2.9-.4,1.7-.6,3.1-.6,4.2s.2,2.8.6,4.5c.4,1.7.9,2.6,1.4,2.6,5.1,0,11-.3,17.6-.8,1.7-.1,3.3-.3,5-.4-.6-4-.9-8-.9-11.8,0-17.1,5.5-32.3,16.5-45.3h0Z"/>
  <path class="st0" d="M610.4,412.9c0-1.1-.2-2.5-.6-4.3,0,0,0,0,0,0-.4,1.7-.6,3.1-.6,4.2s.2,3,.6,4.6c0,0,0,0,0,0,.4-1.7.6-3.2.6-4.5Z"/>
  <path class="st0" d="M923,424.9c14,0,25.1-3.7,33.5-11,8.3-7.3,14.6-14.8,18.9-22.6.3-.4.6-.9.6-1.3,0-.4.1-.9.1-1.3,0-1.1-.3-2.2-.9-3.4-.6-1.2-1.3-2.3-2.2-3.4-.7-.6-1.5-1.3-2.3-2.1-.9-.8-1.4-.9-1.5-.5-3.4,5.8-8.9,10.7-16.6,14.5-7.7,3.9-14.6,5.8-20.7,5.8-8.8,0-15.6-3.6-20.3-10.7-4.7-7.1-7-19.7-7-37.8v-6.9c0-2.5,0-4.5.3-6h70.5c1.5,0,2.7-.4,3.6-1.3.8-.9,1.3-2,1.3-3.6,0-17.6-5.1-32.5-15.3-44.5-10.2-12.1-24.2-18.1-41.9-18.1s-35,7.5-46.9,22.4c-11.8,15-17.8,33.8-17.8,56.7s6.2,37.8,18.6,52.6c12.4,14.8,27.8,22.3,46,22.3h0ZM911.5,296.4c2.7-6.9,6.9-10.3,12.5-10.3s8,2.3,10.3,6.8c2.3,4.5,3.5,10,3.5,16.5s-.9,9.2-2.6,10.8-4.4,2.5-8.2,2.7l-20.9.6c.8-11.2,2.6-20.2,5.4-27.1h0Z"/>
  <path class="st0" d="M992,420.2c5.1,0,11.4-.4,18.9-1.1,7.5-.7,14.1-1.1,19.9-1.1s13,.4,21.1,1.1c8.1.7,14.8,1.1,20,1.1s1-.9,1.4-2.7c.4-1.8.6-3.3.6-4.4s-.2-2.8-.6-4.5c-.4-1.7-.9-2.6-1.4-2.6-7.5-1.1-12.6-3.4-15.3-7s-4.1-10.4-4.1-20.5v-56.9c2.4-5.4,4.6-9.5,6.8-12.3,2.1-2.8,5-4.2,8.6-4.2s4.2,1,6,2.9,3.5,4,5,6.1c1.5,1.9,3.5,3.9,5.9,5.8,2.4,1.9,5.4,2.9,8.9,2.9,5.6,0,10.2-2.4,13.7-7.3,3.5-4.8,5.2-11,5.2-18.6s-2.3-14.4-7-19.2c-4.7-4.8-11.2-7.3-19.5-7.3s-12,3.1-18.6,9.4c-6.6,6.2-11.9,14-15.8,23.2l1.3-30.7c0-1.1-.5-2-1.4-2.9-.9-.9-2.4-1.3-4.5-1.3s-1.9.3-3.1,1-2.1,1.2-2.6,1.6c-5.5,3.2-13.1,7.2-23,11.9-9.9,4.7-17.6,7.9-23.2,9.6-.5,0-1,.9-1.4,2.6-.4,1.7-.6,3.1-.6,4.2s.2,2.4.6,4,.9,2.4,1.4,2.4c6.3.9,10.3,2.6,11.9,5.3,1.6,2.7,2.4,8.3,2.4,16.9v50.7c0,10.5-1,17.4-3.1,20.7-2,3.2-6.8,5.5-14.3,6.8-.5,0-1,.9-1.4,2.6s-.6,3.2-.6,4.5.2,2.5.6,4.4c.4,1.8.9,2.7,1.4,2.7h0Z"/>
  <path class="st0" d="M1116.6,298.3h15.8c1,0,1.8.4,2.3,1.3.5.9.8,1.9.8,3.2l-.5,60.7c-.2,21.1,3.3,36.3,10.5,45.7,7.1,9.4,17.7,14,31.7,14s18.5-2.6,25.8-7.9c7.3-5.3,12.8-10.8,16.3-16.6.3-.2.5-.5.5-1v-1.3c0-1.1-.3-2.4-.9-4s-1.2-3-1.9-4c-.9-1.1-1.8-1.8-2.8-2.3-1-.4-1.9,0-2.6,1.3-2.4,3.7-5.2,6.7-8.6,9.2-3.3,2.5-6.9,3.7-10.6,3.7s-8.1-1.5-10.1-4.4-2.9-7.4-2.9-13.4v-83.6l38.1,1.3c1,0,1.8-1.3,2.4-4,.6-2.7.9-5.2.9-7.6s-.3-4.3-.9-7.1c-.6-2.8-1.4-4.2-2.4-4.2h-37.8l1-42.3c0-.6-.6-1.2-1.9-1.8-1.3-.5-2.5-.8-3.7-.8s-1.9.3-3.2.8c-1.3.5-2.1,1.1-2.4,1.8-6.6,8.6-14.8,17.3-24.4,26-9.6,8.7-19.2,16.3-28.7,22.8-.5.4-1,1.6-1.5,3.4-.5,1.8-.8,3.2-.8,4s.3,2.3.8,4.2c.5,1.9,1.1,2.9,1.8,2.9h0Z"/>
  <path class="st0" d="M1295.9,425.2c22.1,0,39-7.6,50.4-22.8,11.5-15.2,17.2-33,17.2-53.4s-5.9-39.1-17.6-54.7c-11.7-15.6-28.4-23.4-50.1-23.4s-39,7.9-50.6,23.7c-11.6,15.8-17.4,34-17.4,54.4s5.8,38.5,17.5,53.6c11.7,15.1,28.5,22.6,50.4,22.6h0ZM1278.7,302.3c2.8-10.7,8.6-16,17.2-16s14.4,5.2,17.1,15.7c2.7,10.4,4.1,26,4.1,46.6s-1.4,36-4.2,46c-2.8,10-8.5,15-17,15s-14.4-4.9-17.2-14.8c-2.8-9.9-4.2-25.3-4.2-46.2s1.4-35.7,4.2-46.3Z"/>
  <path class="st0" d="M1535.4,409c-.4-1.8-.9-2.7-1.4-2.7-7.5-1.1-12.3-3.3-14.3-6.7-2-3.4-3.1-10.2-3.1-20.6v-59.1c0-12.5-3.6-23.8-10.7-33.9-7.1-10.1-17.1-15.2-29.9-15.2s-16,2.8-23.4,8.4c-7.4,5.6-12.8,13.7-16.2,24.2l1-31c.2-.9-.2-1.8-1.2-2.7s-2.4-1.5-4.5-1.5-1.9.3-3.1,1-2,1.2-2.6,1.6c-4.8,3-12.2,6.9-22.3,11.7-10.1,4.8-18.1,8.2-23.9,10.1-.5,0-1,.8-1.4,2.4-.4,1.6-.6,3-.6,4s.2,2.5.6,4.2c.4,1.7.9,2.6,1.4,2.6,6.3.9,10.2,2.5,11.7,5s2.3,8.3,2.3,17.3v50.8c0,10.6-1,17.5-2.9,20.6-2,3.1-6.7,5.4-14.2,6.7-.5.2-1,1.1-1.4,2.6s-.6,3-.6,4.5.2,3.1.6,4.7.9,2.4,1.4,2.4c5.1,0,11.1-.4,18-1.1,6.9-.7,13.3-1.1,19.3-1.1s11.7.4,17.1,1.1,10.8,1.1,16.1,1.1,1-.8,1.4-2.4c.4-1.6.6-3.2.6-4.7s-.2-3.1-.6-4.7c-.4-1.6-.9-2.4-1.4-2.4-3.4-.4-5.9-2.7-7.5-6.8-1.6-4.1-2.4-10.9-2.4-20.5v-54.6c3.1-9.3,6.1-16,9.2-20.2,3.1-4.2,7.1-6.3,12-6.3s9.9,2.3,11.9,6.8c2,4.5,2.9,12.2,2.9,22.9v51.3c0,10.4-.9,17.4-2.6,20.9-1.7,3.6-4.3,5.7-7.7,6.3-.5.2-1,1.1-1.4,2.7s-.6,3.1-.6,4.4.2,2.8.6,4.5c.4,1.7.9,2.6,1.4,2.6,5.1,0,10.5-.4,16.1-1.1,5.6-.7,11.3-1.1,17.1-1.1s12.4.4,19.3,1.1c6.9.7,13,1.1,18.3,1.1s1-.9,1.4-2.6.6-3.2.6-4.5-.2-2.5-.6-4.4h0Z"/>
  <path class="st0" d="M1179.1,545.8c0-15.2-6.7-28.2-20-39.2-13.3-10.9-34-16.4-62.1-16.4s-11.4,0-16.3.2c0,6-.3,11.8-.9,17.4,1.5-.5,3.2-.7,5.1-.7h3.8c7.6,0,14.1,3.2,19.5,9.7,5.4,6.4,8.1,15.4,8.1,26.9,0,16.3-4.3,29.1-12.9,38.1-8.6,9.1-19.9,13.6-34,13.6h-16.6l7.3-30.6c-5.6,8.3-12.2,15.9-20,22.7-18.3,15.9-38.8,26.3-61.1,31.1l-16,67.4c-2.1,9.5-4.9,16.4-8.6,20.5s-12.3,7-25.9,8.6c-.9.2-2.1,1.4-3.5,3.6-1.4,2.2-2.1,4-2.1,5.6s.2,3,.7,4.1c.5,1.1.8,1.7,1,1.7,11.3,0,22.6-.3,34-.9,11.4-.6,22.4-.9,33-.9s21.4.3,32.4.9c11,.6,22.2.9,33.5.9,34.5,0,61.5-7.1,80.9-21.4,19.4-14.3,29.2-32.6,29.2-54.9s-4.8-24.5-14.5-34c-9.7-9.6-26.2-15.2-49.6-17.1,25.6-1.4,44.6-7.8,57-19.2s18.5-24,18.5-37.8h0ZM1080.9,698.1c-11.2,10.1-23.3,15.2-36.4,15.2s-12-2.4-13.8-7.1c-1.8-4.7-1.7-11.4.4-20.2l17.5-73.9h13.8c12,0,20.9,3.4,26.6,10.2,5.8,6.8,8.6,18.2,8.6,34.3s-5.6,31.3-16.8,41.4h0Z"/>
  <path class="st0" d="M1321,693.6c.5-.7.2-1.8-.7-3.3-.9-1.5-1.8-2.7-2.8-3.6-.5-.5-1-1-1.6-1.6-.6-.6-1.1-1-1.6-1.2s-1.3-.4-2.4-.4c-4.6,6.4-10.8,12.5-18.6,18.3-7.8,5.8-16.2,8.6-25.2,8.6s-13-2.6-16.2-7.9c-3.2-5.3-4.8-12-4.8-20s.1-5.2.4-8.1c.2-2.9.7-5.8,1.4-8.8,27.8,0,49.5-6.3,65.1-18.8,15.5-12.5,23.3-25.4,23.3-38.5s-3.1-18.4-9.3-26.1c-6.2-7.7-16.9-11.6-32.1-11.6-21.6,0-44.2,11.9-67.8,35.7-23.6,23.8-35.4,50.5-35.4,79.9s5.3,25.8,16.1,35.2c10.7,9.4,24.2,14.2,40.6,14.2s27.8-4.2,42.1-12.6c14.3-8.4,24.2-18.2,29.7-29.5h0ZM1265.1,610.6c6.9-11.4,13.9-17.1,21.1-17.1s6,1,7.1,2.9c1,2,1.6,4.9,1.6,8.8,0,9.7-4.1,19.4-12.3,29.2-8.2,9.8-18.5,14.7-30.9,14.7,2.1-14.3,6.6-27.1,13.5-38.5h0Z"/>
  <path class="st0" d="M1519.7,573.3c-4.9-1.7-9.4-2.6-13.3-2.6s-4.5.9-9.5,2.6c-4.9,1.7-7.7,5.6-8.1,11.6-1.6,16.3-4.9,35.3-10,57-5.1,21.6-14.3,44.2-27.6,67.7.5-7.4.7-13.6.7-18.8v-13.6c0-20.9-1.1-37.7-3.3-50.2-2.2-12.5-5.3-23.3-9.5-32.3-3.7-8.3-8-14.3-13-18.1-4.9-3.8-10.3-5.7-16.1-5.7-14.5,0-28.4,6.7-41.6,20.2-13.2,13.5-19.9,25.4-19.9,35.7s1.5,2.6,4.5,4.5c3,1.8,5.6,2.8,7.9,2.8s4.1-4,7.6-12.1,7.8-12.1,13.1-12.1,9.6,8.9,14.2,26.8c4.6,17.8,6.9,41.7,6.9,71.6s-3.7,53.6-11,69.6c-7.4,16-14.4,24-21.1,24s-6.2-2-9.5-6-6.2-7.9-8.5-11.6c-2.8-3.9-6.1-7.8-10-11.7-3.9-3.9-8.6-5.9-14.2-5.9-9.7,0-16.5,2.7-20.5,8.1-4,5.4-6,11.8-6,19.2s4.3,14.7,12.8,21.2c8.5,6.6,21.1,9.8,37.6,9.8s37.1-10.4,56.8-31.2c19.7-20.8,38.6-45.4,56.8-73.7,17.5-27.6,32.1-54.9,43.7-81.8,11.6-26.9,17.4-46,17.4-57.3s-2.5-5.7-7.4-7.4h0Z"/>
  <path class="st0" d="M1059.4,490.2c0,34.9-11.1,62-33.3,81.2-22.2,19.3-47.6,28.9-76.3,28.9s-7.8-.5-12.5-1.4c-4.7-.9-8.7-2.1-12-3.5,0,56-20.2,104.3-60.5,145-40.3,40.7-86.1,61.1-137.4,61.1s-77.2-12.5-105.2-37.6-42-56.7-42-94.9,16.1-75.1,48.2-104.1c32.1-29.1,72.3-43.6,120.6-43.6l2.2-4.9c4.8-10.5,7.9-18.6,9.4-24.2,1.5-5.6,2.2-11.7,2.2-18.2s-3.5-17-10.6-30.2c-7.1-13.2-10.6-25.5-10.6-36.7s3.8-22.5,11.4-31.6c7.6-9.1,18-13.6,31.1-13.6s22.6,4,29.7,12c7.1,8,10.6,18.3,10.6,31.1s-3.4,22.2-10.1,37.3c-6.7,15.1-13.7,30.1-21,44.9l-100.3,213.6c8.7,5.5,17.9,9.8,27.5,13.1,9.6,3.3,19.9,4.9,30.8,4.9,15.6,0,32.2-2,49.6-6s32.7-10.7,45.8-20.2c14.2-10.5,26.2-24.1,36-40.6,9.8-16.5,15.3-38.8,16.3-66.8-9.8-7.6-18.9-13.3-27.3-16.9-8.4-3.6-16.7-5.5-25.1-5.5s-11.5,1.9-15,5.7-5.2,8.6-5.2,14.4,1.6,8.9,4.9,11.4,6.7,4.9,10.4,7.1c4.4,2.5,8,5.3,10.9,8.2,2.9,2.9,4.4,8.2,4.4,15.8s-3.4,14.4-10.1,20.2c-6.7,5.8-14.3,8.7-22.6,8.7-12.7,0-22.8-4.6-30.3-13.9s-11.2-22.1-11.2-38.4c0-26.2,10.9-50.7,32.7-73.6,21.8-22.9,47.4-34.3,76.9-34.3s17.8,2.3,27.3,6.8c9.4,4.5,18.5,9.7,27.3,15.5,9.1,6.2,17.1,11.4,24,15.8,6.9,4.4,13.6,6.5,20.2,6.5s15-1.8,18.8-5.5c3.8-3.6,5.7-8.5,5.7-14.7s-1.5-8.4-4.6-10.9c-3.1-2.5-6.6-5.1-10.6-7.6-4-2.2-7.6-5.1-10.6-8.7-3.1-3.6-4.6-8.9-4.6-15.8s3.2-17.5,9.5-24.3c6.4-6.7,15.4-10.1,27-10.1s19.9,4.7,27,14.2c7.1,9.4,10.6,21.1,10.6,34.9h0ZM725.9,570.4c-26.2-5.5-46.5-2.3-60.9,9.5-14.4,11.8-21.6,27.7-21.6,47.7s2.6,22.1,7.9,31.4c5.3,9.3,12.4,18.1,21.5,26.4l53.1-115h0Z"/>
</svg>